<svg xmlns="http://www.w3.org/2000/svg" width="752" height="778.517" viewBox="0 0 752 778.517"><defs><style>.a{fill:#eaeaea;}.b{fill:#dbdee5;}.c{fill:#bcbcbc;}.d{fill:#747474;}.e{fill:#323232;}.f{fill:#959595;}.g{fill:#e41728;}.h{fill:#505050;}</style></defs><g transform="translate(-373.605 -34.903)"><rect class="a" width="290.127" height="122.517" transform="translate(373.605 34.903)"/><rect width="238.542" height="86.925" transform="translate(885.368 157.42)"/><rect class="b" width="159.176" height="86.925" transform="translate(486.206 630.048)"/><rect class="a" width="290.127" height="122.517" transform="translate(835.478 690.903)"/><rect class="c" width="220.127" height="122.517" transform="translate(443.605 448.674)"/><rect class="d" width="114.239" height="215" transform="translate(833.564 587.903)"/><path class="e" d="M404.833,247.5A178.364,178.364,0,0,0,583.2,425.866V69.136A178.364,178.364,0,0,0,404.833,247.5Z" transform="translate(80.534 88.283)"/><path d="M454.671,419.811v-251H659.344Z" transform="translate(319.284 345.337)"/><path class="f" d="M556.249,189.42H471.327V293.564Z" transform="translate(362.237 398.483)"/><path class="c" d="M478.472,250.158V137.269H590.234Z" transform="translate(380.663 263.991)"/><path d="M566.336,157.576V34.9H454.573Z" transform="translate(319.032 0)"/><path class="f" d="M554.17,215.993V150.517H416.089A178,178,0,0,0,554.17,215.993Z" transform="translate(109.562 298.156)"/><path class="g" d="M644.061,156.06V69.136h-92.8a589.744,589.744,0,0,0-34.332,86.924Z" transform="translate(479.848 88.283)"/><circle class="a" cx="60.207" cy="60.207" r="60.207" transform="translate(782.986 227.788)"/><circle class="g" cx="60.207" cy="60.207" r="60.207" transform="translate(419.605 587.903)"/><path class="g" d="M435.187,96.191A20.7,20.7,0,1,1,414.49,75.5,20.7,20.7,0,0,1,435.187,96.191Z" transform="translate(65.812 104.69)"/><path class="h" d="M583.2,247.5A178.364,178.364,0,0,1,404.833,425.866V69.136A178.364,178.364,0,0,1,583.2,247.5Z" transform="translate(254.407 89.283)"/><rect class="a" width="159.176" height="86.925" transform="translate(950.429 282.903)"/><path class="g" d="M556.249,189.42H471.327V293.564Z" transform="translate(569.356 398.483)"/><path class="e" d="M556.249,293.564H471.327V189.42Z" transform="translate(569.356 294.483)"/><path class="g" d="M435.187,96.191A20.7,20.7,0,1,1,414.49,75.5,20.7,20.7,0,0,1,435.187,96.191Z" transform="translate(662.812 332.888)"/></g></svg>