<svg xmlns="http://www.w3.org/2000/svg" width="30.454" height="24.995" viewBox="0 0 30.454 24.995"><defs><style>.a{fill:#eb194b;}</style></defs><path class="a" d="M27.869,17.345a40.363,40.363,0,0,1-10.432,7.528,1.637,1.637,0,0,1-.618.122,1.87,1.87,0,0,1-.769-.171C13.25,23.324,2,16.8,2,7.97A7.731,7.731,0,0,1,9.582,0a7.578,7.578,0,0,1,6.342,3.322.659.659,0,0,1,.049.69,9.464,9.464,0,0,0-.668,3.445C15.305,12.819,19.122,17,24.4,17a10.266,10.266,0,0,0,3.023-.369A.426.426,0,0,1,27.869,17.345ZM32.454,7.53A7.607,7.607,0,1,1,24.848,0,7.586,7.586,0,0,1,32.454,7.53Z" transform="translate(-2)"/></svg>