<svg xmlns="http://www.w3.org/2000/svg" width="84.86" height="20" viewBox="0 0 84.86 20"><defs><style>.a{fill:#eb194b;}</style></defs><path class="a" d="M20.7,13.876A32.292,32.292,0,0,1,12.349,19.9a1.31,1.31,0,0,1-.495.1,1.5,1.5,0,0,1-.615-.137C9,18.659,0,13.444,0,6.376A6.185,6.185,0,0,1,6.065,0a6.063,6.063,0,0,1,5.074,2.658.527.527,0,0,1,.039.552,7.57,7.57,0,0,0-.534,2.756A7.291,7.291,0,0,0,17.92,13.6a8.215,8.215,0,0,0,2.419-.3A.341.341,0,0,1,20.7,13.876Zm3.668-7.852A6.085,6.085,0,1,1,18.278,0,6.069,6.069,0,0,1,24.364,6.024Zm7.116,7.5h5.61v3.09H28.13V3.8h3.349ZM49.5,11.3c0,3.347-2.3,5.511-5.669,5.511a5.173,5.173,0,0,1-5.391-5.472,5.326,5.326,0,0,1,5.63-5.392A5.172,5.172,0,0,1,49.5,11.3Zm-2.953,0A2.385,2.385,0,0,0,44.067,8.76a2.5,2.5,0,0,0-2.7,2.538,2.505,2.505,0,0,0,2.616,2.619A2.471,2.471,0,0,0,46.545,11.3Zm16.075,0c0,3.347-2.081,5.511-4.737,5.511a4.736,4.736,0,0,1-3.25-1.239V20H51.5V6.163h3.053V7.5A4.659,4.659,0,0,1,58,5.948C60.8,5.944,62.62,7.991,62.62,11.3Zm-3.012,0c0-1.219-.556-2.775-2.32-2.775a2.652,2.652,0,0,0-2.616,2.893,2.534,2.534,0,0,0,2.576,2.834C58.973,14.25,59.608,12.674,59.608,11.3Zm14.985-.041a5.6,5.6,0,0,1-.079.965H67.179a2.347,2.347,0,0,0,2.5,2.106,1.991,1.991,0,0,0,2-1.024h2.815c-.357,1.889-2.1,3.5-4.877,3.5a5.112,5.112,0,0,1-5.411-5.392,5.336,5.336,0,0,1,5.45-5.472C72.572,5.944,74.592,7.893,74.592,11.257Zm-7.354-1.239h4.4A1.8,1.8,0,0,0,69.6,8.306,2.306,2.306,0,0,0,67.238,10.019ZM84.86,13.483c0,1.969-1.744,3.325-4.222,3.325-2.953,0-4.34-1.732-4.34-3.5v-.1h2.775v.1c0,.532.416,1.1,1.565,1.1.792,0,1.269-.354,1.269-.845,0-1.534-5.551-1-5.551-4.566,0-1.771,1.764-3.051,4.1-3.051,2.7,0,4.222,1.673,4.222,3.306v.1H81.708V9.271c0-.611-.416-1.082-1.289-1.082-.773,0-1.149.374-1.149.748C79.272,10.61,84.86,9.921,84.86,13.483Z"/></svg>